<svg xmlns="http://www.w3.org/2000/svg" viewBox="0 0 100 100">
  <defs>
    <linearGradient id="logo-gradient" x1="0%" y1="0%" x2="100%" y2="0%">
      <stop offset="0%" stop-color="#e5e5e5" />
      <stop offset="100%" stop-color="#4f8ea3" />
    </linearGradient>
  </defs>
  <path d="M 5.000000,0.190400 L 6.800000,21.283318 L 8.600000,38.790144 L 10.400000,53.051522 L 12.200000,64.393601 L 14.000000,73.128036 L 15.800000,79.551984 L 17.600000,83.948107 L 19.400000,86.584573 L 21.200000,87.715053 L 23.000000,87.578724 L 24.800000,86.400265 L 26.600000,84.389862 L 28.400000,81.743203 L 30.200000,78.641484 L 32.000000,75.251402 L 33.800000,71.725161 L 35.600000,68.200467 L 37.400000,64.800533 L 39.200000,61.634074 L 41.000000,58.795313 L 42.800000,56.363973 L 44.600000,54.405286 L 46.400000,52.969984 L 48.200000,52.094308 L 50.000000,51.800000 L 51.800000,52.094308 L 53.600000,52.969984 L 55.400000,54.405286 L 57.200000,56.363973 L 59.000000,58.795313 L 60.800000,61.634074 L 62.600000,64.800533 L 64.400000,68.200467 L 66.200000,71.725161 L 68.000000,75.251402 L 69.800000,78.641484 L 71.600000,81.743203 L 73.400000,84.389862 L 75.200000,86.400265 L 77.000000,87.578724 L 78.800000,87.715053 L 80.600000,86.584573 L 82.400000,83.948107 L 84.200000,79.551984 L 86.000000,73.128036 L 87.800000,64.393601 L 89.600000,53.051522 L 91.400000,38.790144 L 93.200000,21.283318 L 95.000000,0.190400" fill="none" stroke="url(#logo-gradient)" stroke-width="8" stroke-linecap="round" stroke-linejoin="round"/>
</svg>
