<svg xmlns="http://www.w3.org/2000/svg" viewBox="0 0 100 100">
  <defs>
    <linearGradient id="logo-gradient" x1="0%" y1="0%" x2="100%" y2="0%">
      <stop offset="0%" stop-color="#f5f5f5" />
      <stop offset="100%" stop-color="#8ab4f8" />
    </linearGradient>
  </defs>
  <path
    d="M 5,5.4 L 6.8,19.4 L 8.6,32.3 L 10.4,44.1 L 12.2,54.7 L 14,64.3 L 15.8,72.7 L 17.6,79.9 L 19.4,85.9 L 21.2,90.7 L 23,94.3 L 24.8,96.7 L 26.6,97.9 L 28.4,97.9 L 30.2,96.7 L 32,94.3 L 33.8,90.7 L 35.6,85.9 L 37.4,79.9 L 39.2,72.7 L 41,64.3 L 42.8,54.7 L 44.6,44.1 L 46.4,32.3 L 48.2,19.4 L 50,5.4 L 51.8,19.4 L 53.6,32.3 L 55.4,44.1 L 57.2,54.7 L 59,64.3 L 60.8,72.7 L 62.6,79.9 L 64.4,85.9 L 66.2,90.7 L 68,94.3 L 69.8,96.7 L 71.6,97.9 L 73.4,97.9 L 75.2,96.7 L 77,94.3 L 78.8,90.7 L 80.6,85.9 L 82.4,79.9 L 84.2,72.7 L 86,64.3 L 87.8,54.7 L 89.6,44.1 L 91.4,32.3 L 93.2,19.4 L 95,5.4"
    fill="none"
    stroke="url(#logo-gradient)"
    stroke-width="6"
    stroke-linecap="round"
    stroke-linejoin="round"
  />
</svg>
